<mxfile host="app.diagrams.net" modified="2023-10-21T10:32:27.739Z" agent="Mozilla/5.0 (Macintosh; Intel Mac OS X 10_15_7) AppleWebKit/537.36 (KHTML, like Gecko) Chrome/118.0.0.0 Safari/537.36" etag="XzgnzEbpz7OkaJI_Wq_B" version="22.0.6" type="github">
  <diagram id="C5RBs43oDa-KdzZeNtuy" name="Page-1">
    <mxGraphModel dx="919" dy="1964" grid="1" gridSize="10" guides="1" tooltips="1" connect="1" arrows="1" fold="1" page="1" pageScale="1" pageWidth="827" pageHeight="1169" math="0" shadow="0">
      <root>
        <mxCell id="WIyWlLk6GJQsqaUBKTNV-0" />
        <mxCell id="WIyWlLk6GJQsqaUBKTNV-1" parent="WIyWlLk6GJQsqaUBKTNV-0" />
        <mxCell id="3tdxItgbCwFwzR9cwCHK-22" value="&lt;p style=&quot;margin:0px;margin-top:4px;text-align:center;&quot;&gt;&lt;font face=&quot;Times New Roman&quot;&gt;&lt;b&gt;Lender&lt;/b&gt;&lt;/font&gt;&lt;/p&gt;&lt;hr size=&quot;1&quot;&gt;&lt;p style=&quot;margin:0px;margin-left:4px;&quot;&gt;&lt;font face=&quot;Times New Roman&quot;&gt;+ _id: string&lt;/font&gt;&lt;/p&gt;&lt;p style=&quot;margin:0px;margin-left:4px;&quot;&gt;&lt;font face=&quot;Times New Roman&quot;&gt;&lt;br&gt;+ Name: string&lt;/font&gt;&lt;/p&gt;&lt;p style=&quot;margin:0px;margin-left:4px;&quot;&gt;&lt;font face=&quot;Times New Roman&quot;&gt;&lt;br&gt;&lt;/font&gt;&lt;/p&gt;&lt;p style=&quot;margin:0px;margin-left:4px;&quot;&gt;&lt;font face=&quot;Times New Roman&quot;&gt;+ Email: string&lt;/font&gt;&lt;/p&gt;&lt;hr size=&quot;1&quot;&gt;&lt;p style=&quot;margin:0px;margin-left:4px;&quot;&gt;&lt;font face=&quot;Times New Roman&quot;&gt;+ reviewLoanApplication()&lt;/font&gt;&lt;/p&gt;&lt;p style=&quot;margin:0px;margin-left:4px;&quot;&gt;&lt;font face=&quot;Times New Roman&quot;&gt;&lt;br&gt;&lt;/font&gt;&lt;/p&gt;&lt;p style=&quot;margin:0px;margin-left:4px;&quot;&gt;&lt;font face=&quot;Times New Roman&quot;&gt;+ manageBorrowers()&lt;/font&gt;&lt;/p&gt;&lt;p style=&quot;margin:0px;margin-left:4px;&quot;&gt;&lt;font face=&quot;Times New Roman&quot;&gt;&lt;br&gt;&lt;/font&gt;&lt;/p&gt;&lt;p style=&quot;margin:0px;margin-left:4px;&quot;&gt;&lt;font face=&quot;Times New Roman&quot;&gt;+ disburseFunds()&lt;/font&gt;&lt;/p&gt;&lt;p style=&quot;margin:0px;margin-left:4px;&quot;&gt;&lt;font face=&quot;Times New Roman&quot;&gt;&lt;br&gt;&lt;/font&gt;&lt;/p&gt;&lt;p style=&quot;margin:0px;margin-left:4px;&quot;&gt;&lt;font face=&quot;Times New Roman&quot;&gt;+ editLoanTerms()&lt;/font&gt;&lt;/p&gt;&lt;p style=&quot;margin:0px;margin-left:4px;&quot;&gt;&lt;font face=&quot;Times New Roman&quot;&gt;&lt;br&gt;&lt;/font&gt;&lt;/p&gt;&lt;p style=&quot;margin:0px;margin-left:4px;&quot;&gt;&lt;font face=&quot;Times New Roman&quot;&gt;+ manageLoans()&lt;/font&gt;&lt;/p&gt;" style="verticalAlign=top;align=left;overflow=fill;fontSize=12;fontFamily=Helvetica;html=1;whiteSpace=wrap;" vertex="1" parent="WIyWlLk6GJQsqaUBKTNV-1">
          <mxGeometry x="400" y="-10" width="190" height="250" as="geometry" />
        </mxCell>
        <mxCell id="3tdxItgbCwFwzR9cwCHK-23" value="&lt;p style=&quot;margin:0px;margin-top:4px;text-align:center;&quot;&gt;&lt;font face=&quot;Times New Roman&quot;&gt;&lt;i&gt;&amp;lt;&amp;lt;Interface&amp;gt;&amp;gt;&lt;/i&gt;&lt;br&gt;&lt;b&gt;Borrower&lt;/b&gt;&lt;/font&gt;&lt;/p&gt;&lt;hr size=&quot;1&quot;&gt;&lt;p style=&quot;margin:0px;margin-left:4px;&quot;&gt;&lt;font face=&quot;Times New Roman&quot;&gt;+ _id: string&lt;/font&gt;&lt;/p&gt;&lt;p style=&quot;margin:0px;margin-left:4px;&quot;&gt;&lt;font face=&quot;Times New Roman&quot;&gt;&lt;br&gt;&lt;/font&gt;&lt;/p&gt;&lt;p style=&quot;margin:0px;margin-left:4px;&quot;&gt;&lt;font face=&quot;Times New Roman&quot;&gt;+ IsBusiness: boolean&lt;/font&gt;&lt;/p&gt;&lt;p style=&quot;margin:0px;margin-left:4px;&quot;&gt;&lt;font face=&quot;Times New Roman&quot;&gt;&lt;br&gt;+ Name: string&lt;/font&gt;&lt;/p&gt;&lt;p style=&quot;margin:0px;margin-left:4px;&quot;&gt;&lt;font face=&quot;Times New Roman&quot;&gt;&lt;br&gt;&lt;/font&gt;&lt;/p&gt;&lt;p style=&quot;margin:0px;margin-left:4px;&quot;&gt;&lt;font face=&quot;Times New Roman&quot;&gt;+ Email: string&lt;/font&gt;&lt;/p&gt;&lt;p style=&quot;margin:0px;margin-left:4px;&quot;&gt;&lt;font face=&quot;Times New Roman&quot;&gt;&lt;br&gt;&lt;/font&gt;&lt;/p&gt;&lt;p style=&quot;margin:0px;margin-left:4px;&quot;&gt;&lt;font face=&quot;Times New Roman&quot;&gt;+ Phone: string&lt;/font&gt;&lt;/p&gt;&lt;p style=&quot;margin:0px;margin-left:4px;&quot;&gt;&lt;font face=&quot;Times New Roman&quot;&gt;&lt;br&gt;&lt;/font&gt;&lt;/p&gt;&lt;p style=&quot;margin:0px;margin-left:4px;&quot;&gt;&lt;font face=&quot;Times New Roman&quot;&gt;+ Picture: File&lt;/font&gt;&lt;/p&gt;&lt;p style=&quot;margin:0px;margin-left:4px;&quot;&gt;&lt;font face=&quot;Times New Roman&quot;&gt;&lt;br&gt;&lt;/font&gt;&lt;/p&gt;&lt;p style=&quot;margin:0px;margin-left:4px;&quot;&gt;&lt;font face=&quot;Times New Roman&quot;&gt;+ Nationality: string&lt;/font&gt;&lt;/p&gt;&lt;p style=&quot;margin:0px;margin-left:4px;&quot;&gt;&lt;font face=&quot;Times New Roman&quot;&gt;&lt;br&gt;&lt;/font&gt;&lt;/p&gt;&lt;p style=&quot;margin:0px;margin-left:4px;&quot;&gt;&lt;font face=&quot;Times New Roman&quot;&gt;+ Address: string&lt;/font&gt;&lt;/p&gt;&lt;p style=&quot;margin:0px;margin-left:4px;&quot;&gt;&lt;font face=&quot;Times New Roman&quot;&gt;&lt;br&gt;&lt;/font&gt;&lt;/p&gt;&lt;p style=&quot;margin:0px;margin-left:4px;&quot;&gt;&lt;font face=&quot;Times New Roman&quot;&gt;+ NextOfKin: NextOfKin{}&lt;/font&gt;&lt;/p&gt;&lt;p style=&quot;margin:0px;margin-left:4px;&quot;&gt;&lt;font face=&quot;Times New Roman&quot;&gt;&lt;br&gt;&lt;/font&gt;&lt;/p&gt;&lt;p style=&quot;margin:0px;margin-left:4px;&quot;&gt;&lt;font face=&quot;Times New Roman&quot;&gt;+ Guarantor: Guarantor{}&lt;/font&gt;&lt;/p&gt;&lt;p style=&quot;margin:0px;margin-left:4px;&quot;&gt;&lt;font face=&quot;Times New Roman&quot;&gt;&lt;br&gt;&lt;/font&gt;&lt;/p&gt;&lt;p style=&quot;margin:0px;margin-left:4px;&quot;&gt;&lt;font face=&quot;Times New Roman&quot;&gt;+ Occupation: string&lt;/font&gt;&lt;/p&gt;&lt;p style=&quot;margin:0px;margin-left:4px;&quot;&gt;&lt;font face=&quot;Times New Roman&quot;&gt;&lt;br&gt;&lt;/font&gt;&lt;/p&gt;&lt;p style=&quot;margin:0px;margin-left:4px;&quot;&gt;&lt;font face=&quot;Times New Roman&quot;&gt;+ EmploymentPeriod: int&lt;/font&gt;&lt;/p&gt;&lt;p style=&quot;margin:0px;margin-left:4px;&quot;&gt;&lt;font face=&quot;Times New Roman&quot;&gt;&lt;br&gt;&lt;/font&gt;&lt;/p&gt;&lt;p style=&quot;margin:0px;margin-left:4px;&quot;&gt;&lt;font face=&quot;Times New Roman&quot;&gt;+ AnnualIncome: int&lt;/font&gt;&lt;/p&gt;&lt;p style=&quot;margin:0px;margin-left:4px;&quot;&gt;&lt;font face=&quot;Times New Roman&quot;&gt;&lt;br&gt;&lt;/font&gt;&lt;/p&gt;&lt;p style=&quot;margin:0px;margin-left:4px;&quot;&gt;&lt;font face=&quot;Times New Roman&quot;&gt;+ CreditScore: int&lt;/font&gt;&lt;/p&gt;&lt;p style=&quot;margin:0px;margin-left:4px;&quot;&gt;&lt;font face=&quot;Times New Roman&quot;&gt;&lt;br&gt;&lt;/font&gt;&lt;/p&gt;&lt;p style=&quot;margin:0px;margin-left:4px;&quot;&gt;&lt;font face=&quot;Times New Roman&quot;&gt;+ Signature: File&lt;/font&gt;&lt;/p&gt;&lt;p style=&quot;margin:0px;margin-left:4px;&quot;&gt;&lt;font face=&quot;Times New Roman&quot;&gt;&lt;br&gt;&lt;/font&gt;&lt;/p&gt;&lt;p style=&quot;margin:0px;margin-left:4px;&quot;&gt;&lt;font face=&quot;Times New Roman&quot;&gt;+ BVN: string&lt;/font&gt;&lt;/p&gt;&lt;p style=&quot;margin:0px;margin-left:4px;&quot;&gt;&lt;font face=&quot;Times New Roman&quot;&gt;&lt;br&gt;&lt;/font&gt;&lt;/p&gt;&lt;p style=&quot;margin:0px;margin-left:4px;&quot;&gt;&lt;font face=&quot;Times New Roman&quot;&gt;+ Identification: File&lt;/font&gt;&lt;/p&gt;&lt;p style=&quot;margin:0px;margin-left:4px;&quot;&gt;&lt;font face=&quot;Times New Roman&quot;&gt;&lt;br&gt;&lt;/font&gt;&lt;/p&gt;&lt;p style=&quot;margin:0px;margin-left:4px;&quot;&gt;&lt;font face=&quot;Times New Roman&quot;&gt;+ BusinessDeck: File&lt;/font&gt;&lt;/p&gt;&lt;p style=&quot;margin:0px;margin-left:4px;&quot;&gt;&lt;font face=&quot;Times New Roman&quot;&gt;&lt;br&gt;&lt;/font&gt;&lt;/p&gt;&lt;p style=&quot;margin:0px;margin-left:4px;&quot;&gt;&lt;font face=&quot;Times New Roman&quot;&gt;+ IdNumber: string&lt;/font&gt;&lt;/p&gt;&lt;p style=&quot;margin:0px;margin-left:4px;&quot;&gt;&lt;font face=&quot;Times New Roman&quot;&gt;&lt;br&gt;&lt;/font&gt;&lt;/p&gt;&lt;p style=&quot;margin:0px;margin-left:4px;&quot;&gt;&lt;font face=&quot;Times New Roman&quot;&gt;+ CriminalRecord: boolean&lt;/font&gt;&lt;/p&gt;&lt;p style=&quot;margin:0px;margin-left:4px;&quot;&gt;&lt;font face=&quot;Times New Roman&quot;&gt;&lt;br&gt;&lt;/font&gt;&lt;/p&gt;&lt;p style=&quot;margin:0px;margin-left:4px;&quot;&gt;&lt;font face=&quot;Times New Roman&quot;&gt;+ CriminalOffense?: string&lt;/font&gt;&lt;/p&gt;&lt;p style=&quot;margin:0px;margin-left:4px;&quot;&gt;&lt;font face=&quot;Times New Roman&quot;&gt;&lt;br&gt;&lt;/font&gt;&lt;/p&gt;&lt;p style=&quot;margin:0px;margin-left:4px;&quot;&gt;&lt;font face=&quot;Times New Roman&quot;&gt;+ JailPeriod?: int&lt;/font&gt;&lt;/p&gt;&lt;p style=&quot;margin:0px;margin-left:4px;&quot;&gt;&lt;br&gt;&lt;/p&gt;&lt;hr size=&quot;1&quot;&gt;&lt;p style=&quot;margin:0px;margin-left:4px;&quot;&gt;&lt;font face=&quot;Times New Roman&quot;&gt;+ sendApplication()&lt;/font&gt;&lt;/p&gt;&lt;p style=&quot;margin:0px;margin-left:4px;&quot;&gt;&lt;br&gt;&lt;/p&gt;" style="verticalAlign=top;align=left;overflow=fill;fontSize=12;fontFamily=Helvetica;html=1;whiteSpace=wrap;" vertex="1" parent="WIyWlLk6GJQsqaUBKTNV-1">
          <mxGeometry x="400" y="370" width="190" height="715" as="geometry" />
        </mxCell>
        <mxCell id="3tdxItgbCwFwzR9cwCHK-24" value="&lt;p style=&quot;margin:0px;margin-top:4px;text-align:center;&quot;&gt;&lt;font face=&quot;Times New Roman&quot;&gt;&lt;b&gt;Admin&lt;/b&gt;&lt;/font&gt;&lt;/p&gt;&lt;hr size=&quot;1&quot;&gt;&lt;p style=&quot;margin:0px;margin-left:4px;&quot;&gt;&lt;font face=&quot;Times New Roman&quot;&gt;+ _id: string&lt;/font&gt;&lt;/p&gt;&lt;p style=&quot;margin:0px;margin-left:4px;&quot;&gt;&lt;font face=&quot;Times New Roman&quot;&gt;&lt;br&gt;+ Name: string&lt;/font&gt;&lt;/p&gt;&lt;p style=&quot;margin:0px;margin-left:4px;&quot;&gt;&lt;font face=&quot;Times New Roman&quot;&gt;&lt;br&gt;&lt;/font&gt;&lt;/p&gt;&lt;p style=&quot;margin:0px;margin-left:4px;&quot;&gt;&lt;font face=&quot;Times New Roman&quot;&gt;+ Email: string&lt;/font&gt;&lt;/p&gt;&lt;hr size=&quot;1&quot;&gt;&lt;p style=&quot;margin:0px;margin-left:4px;&quot;&gt;&lt;font face=&quot;Times New Roman&quot;&gt;+ authorizeLender()&lt;/font&gt;&lt;/p&gt;&lt;p style=&quot;margin:0px;margin-left:4px;&quot;&gt;&lt;font face=&quot;Times New Roman&quot;&gt;&lt;br&gt;&lt;/font&gt;&lt;/p&gt;&lt;p style=&quot;margin:0px;margin-left:4px;&quot;&gt;&lt;font face=&quot;Times New Roman&quot;&gt;+ disableLender()&lt;/font&gt;&lt;/p&gt;&lt;p style=&quot;margin:0px;margin-left:4px;&quot;&gt;&lt;font face=&quot;Times New Roman&quot;&gt;&lt;br&gt;&lt;/font&gt;&lt;/p&gt;&lt;p style=&quot;margin:0px;margin-left:4px;&quot;&gt;&lt;font face=&quot;Times New Roman&quot;&gt;+ resetLenderDetails()&lt;/font&gt;&lt;/p&gt;&lt;p style=&quot;margin:0px;margin-left:4px;&quot;&gt;&lt;br&gt;&lt;/p&gt;" style="verticalAlign=top;align=left;overflow=fill;fontSize=12;fontFamily=Helvetica;html=1;whiteSpace=wrap;" vertex="1" parent="WIyWlLk6GJQsqaUBKTNV-1">
          <mxGeometry x="58" width="190" height="230" as="geometry" />
        </mxCell>
        <mxCell id="3tdxItgbCwFwzR9cwCHK-25" value="&lt;p style=&quot;margin:0px;margin-top:4px;text-align:center;&quot;&gt;&lt;font face=&quot;Times New Roman&quot;&gt;&lt;b&gt;Loan&lt;/b&gt;&lt;/font&gt;&lt;/p&gt;&lt;hr size=&quot;1&quot;&gt;&lt;p style=&quot;margin:0px;margin-left:4px;&quot;&gt;&lt;font face=&quot;Times New Roman&quot;&gt;+ _id: string&lt;/font&gt;&lt;/p&gt;&lt;p style=&quot;margin:0px;margin-left:4px;&quot;&gt;&lt;font face=&quot;Times New Roman&quot;&gt;&lt;br&gt;+ BorrowerId: string&lt;/font&gt;&lt;/p&gt;&lt;p style=&quot;margin:0px;margin-left:4px;&quot;&gt;&lt;font face=&quot;Times New Roman&quot;&gt;&lt;br&gt;&lt;/font&gt;&lt;/p&gt;&lt;p style=&quot;margin:0px;margin-left:4px;&quot;&gt;&lt;font face=&quot;Times New Roman&quot;&gt;+ LenderId: string&lt;/font&gt;&lt;/p&gt;&lt;p style=&quot;margin:0px;margin-left:4px;&quot;&gt;&lt;font face=&quot;Times New Roman&quot;&gt;&lt;br&gt;&lt;/font&gt;&lt;/p&gt;&lt;p style=&quot;margin:0px;margin-left:4px;&quot;&gt;&lt;font face=&quot;Times New Roman&quot;&gt;+ ApplicationId: string&lt;/font&gt;&lt;/p&gt;&lt;p style=&quot;margin:0px;margin-left:4px;&quot;&gt;&lt;font face=&quot;Times New Roman&quot;&gt;&lt;br&gt;&lt;/font&gt;&lt;/p&gt;&lt;p style=&quot;margin:0px;margin-left:4px;&quot;&gt;&lt;font face=&quot;Times New Roman&quot;&gt;+ Status: string&lt;/font&gt;&lt;/p&gt;&lt;p style=&quot;margin:0px;margin-left:4px;&quot;&gt;&lt;font face=&quot;Times New Roman&quot;&gt;&lt;br&gt;&lt;/font&gt;&lt;/p&gt;&lt;p style=&quot;margin:0px;margin-left:4px;&quot;&gt;&lt;font face=&quot;Times New Roman&quot;&gt;+ isActive: boolean&lt;/font&gt;&lt;/p&gt;&lt;p style=&quot;margin:0px;margin-left:4px;&quot;&gt;&lt;font face=&quot;Times New Roman&quot;&gt;&lt;br&gt;&lt;/font&gt;&lt;/p&gt;&lt;p style=&quot;margin:0px;margin-left:4px;&quot;&gt;&lt;font face=&quot;Times New Roman&quot;&gt;+ Amount: Float&lt;/font&gt;&lt;/p&gt;&lt;p style=&quot;margin:0px;margin-left:4px;&quot;&gt;&lt;font face=&quot;Times New Roman&quot;&gt;&lt;br&gt;&lt;/font&gt;&lt;/p&gt;&lt;p style=&quot;margin:0px;margin-left:4px;&quot;&gt;&lt;font face=&quot;Times New Roman&quot;&gt;+ DisbursementDate: Date&lt;/font&gt;&lt;/p&gt;&lt;p style=&quot;margin:0px;margin-left:4px;&quot;&gt;&lt;font face=&quot;Times New Roman&quot;&gt;&lt;br&gt;&lt;/font&gt;&lt;/p&gt;&lt;p style=&quot;margin:0px;margin-left:4px;&quot;&gt;&lt;font face=&quot;Times New Roman&quot;&gt;+ DueDate: Date&lt;/font&gt;&lt;/p&gt;&lt;p style=&quot;margin:0px;margin-left:4px;&quot;&gt;&lt;font face=&quot;Times New Roman&quot;&gt;&lt;br&gt;&lt;/font&gt;&lt;/p&gt;&lt;p style=&quot;margin:0px;margin-left:4px;&quot;&gt;&lt;font face=&quot;Times New Roman&quot;&gt;+ RepaymentDate: Date&lt;/font&gt;&lt;/p&gt;&lt;p style=&quot;margin:0px;margin-left:4px;&quot;&gt;&lt;font face=&quot;Times New Roman&quot;&gt;&lt;br&gt;&lt;/font&gt;&lt;/p&gt;&lt;p style=&quot;margin:0px;margin-left:4px;&quot;&gt;&lt;font face=&quot;Times New Roman&quot;&gt;+ InterestRate: float&lt;/font&gt;&lt;/p&gt;&lt;p style=&quot;margin:0px;margin-left:4px;&quot;&gt;&lt;font face=&quot;Times New Roman&quot;&gt;&lt;br&gt;&lt;/font&gt;&lt;/p&gt;&lt;p style=&quot;margin:0px;margin-left:4px;&quot;&gt;&lt;font face=&quot;Times New Roman&quot;&gt;+ LoanTerm: string&lt;/font&gt;&lt;/p&gt;&lt;p style=&quot;margin:0px;margin-left:4px;&quot;&gt;&lt;font face=&quot;Times New Roman&quot;&gt;&lt;br&gt;&lt;/font&gt;&lt;/p&gt;&lt;p style=&quot;margin:0px;margin-left:4px;&quot;&gt;&lt;br&gt;&lt;/p&gt;" style="verticalAlign=top;align=left;overflow=fill;fontSize=12;fontFamily=Helvetica;html=1;whiteSpace=wrap;" vertex="1" parent="WIyWlLk6GJQsqaUBKTNV-1">
          <mxGeometry x="710" y="-35" width="190" height="420" as="geometry" />
        </mxCell>
        <mxCell id="3tdxItgbCwFwzR9cwCHK-26" value="&lt;p style=&quot;margin:0px;margin-top:4px;text-align:center;&quot;&gt;&lt;font face=&quot;Times New Roman&quot;&gt;&lt;i&gt;&amp;lt;&amp;lt;Interface&amp;gt;&amp;gt;&lt;/i&gt;&lt;br&gt;&lt;b&gt;NextOfKin&lt;/b&gt;&lt;/font&gt;&lt;/p&gt;&lt;hr size=&quot;1&quot;&gt;&lt;p style=&quot;margin:0px;margin-left:4px;&quot;&gt;&lt;span style=&quot;font-family: &amp;quot;Times New Roman&amp;quot;; background-color: initial;&quot;&gt;+ Name: string&lt;/span&gt;&lt;br&gt;&lt;/p&gt;&lt;p style=&quot;margin:0px;margin-left:4px;&quot;&gt;&lt;font face=&quot;Times New Roman&quot;&gt;&lt;br&gt;&lt;/font&gt;&lt;/p&gt;&lt;p style=&quot;margin:0px;margin-left:4px;&quot;&gt;&lt;font face=&quot;Times New Roman&quot;&gt;+ Email: string&lt;/font&gt;&lt;/p&gt;&lt;p style=&quot;margin:0px;margin-left:4px;&quot;&gt;&lt;font face=&quot;Times New Roman&quot;&gt;&lt;br&gt;&lt;/font&gt;&lt;/p&gt;&lt;p style=&quot;margin:0px;margin-left:4px;&quot;&gt;&lt;font face=&quot;Times New Roman&quot;&gt;+ Address: string&lt;/font&gt;&lt;/p&gt;&lt;p style=&quot;margin:0px;margin-left:4px;&quot;&gt;&lt;font face=&quot;Times New Roman&quot;&gt;&lt;br&gt;&lt;/font&gt;&lt;/p&gt;&lt;p style=&quot;margin:0px;margin-left:4px;&quot;&gt;&lt;font face=&quot;Times New Roman&quot;&gt;+ Phone: string&lt;/font&gt;&lt;/p&gt;&lt;p style=&quot;margin:0px;margin-left:4px;&quot;&gt;&lt;font face=&quot;Times New Roman&quot;&gt;&lt;br&gt;&lt;/font&gt;&lt;/p&gt;&lt;p style=&quot;margin:0px;margin-left:4px;&quot;&gt;&lt;font face=&quot;Times New Roman&quot;&gt;+ Relationship: string&lt;/font&gt;&lt;/p&gt;" style="verticalAlign=top;align=left;overflow=fill;fontSize=12;fontFamily=Helvetica;html=1;whiteSpace=wrap;" vertex="1" parent="WIyWlLk6GJQsqaUBKTNV-1">
          <mxGeometry x="58" y="385" width="180" height="200" as="geometry" />
        </mxCell>
        <mxCell id="3tdxItgbCwFwzR9cwCHK-27" value="&lt;p style=&quot;margin:0px;margin-top:4px;text-align:center;&quot;&gt;&lt;font face=&quot;Times New Roman&quot;&gt;&lt;i&gt;&amp;lt;&amp;lt;Interface&amp;gt;&amp;gt;&lt;/i&gt;&lt;br&gt;&lt;b&gt;Guarantor&lt;/b&gt;&lt;/font&gt;&lt;/p&gt;&lt;hr size=&quot;1&quot;&gt;&lt;p style=&quot;margin:0px;margin-left:4px;&quot;&gt;&lt;span style=&quot;font-family: &amp;quot;Times New Roman&amp;quot;; background-color: initial;&quot;&gt;+ Name: string&lt;/span&gt;&lt;/p&gt;&lt;p style=&quot;margin:0px;margin-left:4px;&quot;&gt;&lt;font face=&quot;Times New Roman&quot;&gt;&lt;br&gt;&lt;/font&gt;&lt;/p&gt;&lt;p style=&quot;margin:0px;margin-left:4px;&quot;&gt;&lt;font face=&quot;Times New Roman&quot;&gt;+ Email: string&lt;/font&gt;&lt;/p&gt;&lt;p style=&quot;margin:0px;margin-left:4px;&quot;&gt;&lt;font face=&quot;Times New Roman&quot;&gt;&lt;br&gt;&lt;/font&gt;&lt;/p&gt;&lt;p style=&quot;border-color: var(--border-color); margin: 0px 0px 0px 4px;&quot;&gt;&lt;font style=&quot;border-color: var(--border-color);&quot; face=&quot;Times New Roman&quot;&gt;+ Address: string&lt;/font&gt;&lt;/p&gt;&lt;p style=&quot;border-color: var(--border-color); margin: 0px 0px 0px 4px;&quot;&gt;&lt;font style=&quot;border-color: var(--border-color);&quot; face=&quot;Times New Roman&quot;&gt;&lt;br style=&quot;border-color: var(--border-color);&quot;&gt;&lt;/font&gt;&lt;/p&gt;&lt;p style=&quot;border-color: var(--border-color); margin: 0px 0px 0px 4px;&quot;&gt;&lt;font style=&quot;border-color: var(--border-color);&quot; face=&quot;Times New Roman&quot;&gt;+ Phone: string&lt;/font&gt;&lt;/p&gt;&lt;p style=&quot;border-color: var(--border-color); margin: 0px 0px 0px 4px;&quot;&gt;&lt;font style=&quot;border-color: var(--border-color);&quot; face=&quot;Times New Roman&quot;&gt;&lt;br&gt;&lt;/font&gt;&lt;/p&gt;&lt;p style=&quot;border-color: var(--border-color); margin: 0px 0px 0px 4px;&quot;&gt;&lt;font style=&quot;border-color: var(--border-color);&quot; face=&quot;Times New Roman&quot;&gt;+ Identification: File&lt;/font&gt;&lt;/p&gt;&lt;p style=&quot;border-color: var(--border-color); margin: 0px 0px 0px 4px;&quot;&gt;&lt;font style=&quot;border-color: var(--border-color);&quot; face=&quot;Times New Roman&quot;&gt;&lt;br&gt;&lt;/font&gt;&lt;/p&gt;&lt;p style=&quot;border-color: var(--border-color); margin: 0px 0px 0px 4px;&quot;&gt;&lt;font style=&quot;border-color: var(--border-color);&quot; face=&quot;Times New Roman&quot;&gt;+ Occupation: string&lt;/font&gt;&lt;/p&gt;&lt;p style=&quot;border-color: var(--border-color); margin: 0px 0px 0px 4px;&quot;&gt;&lt;font style=&quot;border-color: var(--border-color);&quot; face=&quot;Times New Roman&quot;&gt;&lt;br&gt;&lt;/font&gt;&lt;/p&gt;&lt;p style=&quot;border-color: var(--border-color); margin: 0px 0px 0px 4px;&quot;&gt;&lt;font style=&quot;border-color: var(--border-color);&quot; face=&quot;Times New Roman&quot;&gt;+ AnnualIncome: int&lt;/font&gt;&lt;/p&gt;&lt;p style=&quot;border-color: var(--border-color); margin: 0px 0px 0px 4px;&quot;&gt;&lt;font style=&quot;border-color: var(--border-color);&quot; face=&quot;Times New Roman&quot;&gt;&lt;br&gt;&lt;/font&gt;&lt;/p&gt;&lt;p style=&quot;border-color: var(--border-color); margin: 0px 0px 0px 4px;&quot;&gt;&lt;font style=&quot;border-color: var(--border-color);&quot; face=&quot;Times New Roman&quot;&gt;+ Signature: File&lt;/font&gt;&lt;/p&gt;&lt;p style=&quot;border-color: var(--border-color); margin: 0px 0px 0px 4px;&quot;&gt;&lt;font style=&quot;border-color: var(--border-color);&quot; face=&quot;Times New Roman&quot;&gt;&lt;br&gt;&lt;/font&gt;&lt;/p&gt;&lt;p style=&quot;border-color: var(--border-color); margin: 0px 0px 0px 4px;&quot;&gt;&lt;font face=&quot;Times New Roman&quot;&gt;+ Relationship: string&lt;/font&gt;&lt;/p&gt;&lt;p style=&quot;margin:0px;margin-left:4px;&quot;&gt;&lt;br&gt;&lt;/p&gt;" style="verticalAlign=top;align=left;overflow=fill;fontSize=12;fontFamily=Helvetica;html=1;whiteSpace=wrap;" vertex="1" parent="WIyWlLk6GJQsqaUBKTNV-1">
          <mxGeometry x="63" y="720" width="190" height="310" as="geometry" />
        </mxCell>
        <mxCell id="3tdxItgbCwFwzR9cwCHK-33" value="" style="endArrow=block;endFill=1;html=1;edgeStyle=orthogonalEdgeStyle;align=left;verticalAlign=top;rounded=0;exitX=1;exitY=0.5;exitDx=0;exitDy=0;entryX=0;entryY=0.5;entryDx=0;entryDy=0;" edge="1" parent="WIyWlLk6GJQsqaUBKTNV-1" source="3tdxItgbCwFwzR9cwCHK-24" target="3tdxItgbCwFwzR9cwCHK-22">
          <mxGeometry x="-1" relative="1" as="geometry">
            <mxPoint x="290" y="104.5" as="sourcePoint" />
            <mxPoint x="450" y="104.5" as="targetPoint" />
          </mxGeometry>
        </mxCell>
        <mxCell id="3tdxItgbCwFwzR9cwCHK-34" value="1" style="edgeLabel;resizable=0;html=1;align=left;verticalAlign=bottom;" connectable="0" vertex="1" parent="3tdxItgbCwFwzR9cwCHK-33">
          <mxGeometry x="-1" relative="1" as="geometry" />
        </mxCell>
        <mxCell id="3tdxItgbCwFwzR9cwCHK-35" value="Manages" style="edgeLabel;html=1;align=center;verticalAlign=middle;resizable=0;points=[];" vertex="1" connectable="0" parent="3tdxItgbCwFwzR9cwCHK-33">
          <mxGeometry x="0.0462" y="2" relative="1" as="geometry">
            <mxPoint as="offset" />
          </mxGeometry>
        </mxCell>
        <mxCell id="3tdxItgbCwFwzR9cwCHK-36" value="0..n" style="text;html=1;align=center;verticalAlign=middle;resizable=0;points=[];autosize=1;strokeColor=none;fillColor=none;" vertex="1" parent="WIyWlLk6GJQsqaUBKTNV-1">
          <mxGeometry x="366" y="110" width="40" height="30" as="geometry" />
        </mxCell>
        <mxCell id="3tdxItgbCwFwzR9cwCHK-37" value="" style="endArrow=block;endFill=1;html=1;edgeStyle=orthogonalEdgeStyle;align=left;verticalAlign=top;rounded=0;exitX=0.5;exitY=1;exitDx=0;exitDy=0;entryX=0.5;entryY=0;entryDx=0;entryDy=0;" edge="1" parent="WIyWlLk6GJQsqaUBKTNV-1" source="3tdxItgbCwFwzR9cwCHK-22" target="3tdxItgbCwFwzR9cwCHK-23">
          <mxGeometry x="-1" relative="1" as="geometry">
            <mxPoint x="460" y="300" as="sourcePoint" />
            <mxPoint x="620" y="300" as="targetPoint" />
            <mxPoint as="offset" />
          </mxGeometry>
        </mxCell>
        <mxCell id="3tdxItgbCwFwzR9cwCHK-42" value="Manages" style="edgeLabel;html=1;align=center;verticalAlign=middle;resizable=0;points=[];" vertex="1" connectable="0" parent="3tdxItgbCwFwzR9cwCHK-37">
          <mxGeometry x="-0.1" y="1" relative="1" as="geometry">
            <mxPoint as="offset" />
          </mxGeometry>
        </mxCell>
        <mxCell id="3tdxItgbCwFwzR9cwCHK-40" value="1" style="text;html=1;align=center;verticalAlign=middle;resizable=0;points=[];autosize=1;strokeColor=none;fillColor=none;" vertex="1" parent="WIyWlLk6GJQsqaUBKTNV-1">
          <mxGeometry x="471" y="248" width="30" height="30" as="geometry" />
        </mxCell>
        <mxCell id="3tdxItgbCwFwzR9cwCHK-43" value="0..n" style="text;html=1;align=center;verticalAlign=middle;resizable=0;points=[];autosize=1;strokeColor=none;fillColor=none;" vertex="1" parent="WIyWlLk6GJQsqaUBKTNV-1">
          <mxGeometry x="490" y="330" width="40" height="30" as="geometry" />
        </mxCell>
        <mxCell id="3tdxItgbCwFwzR9cwCHK-47" value="1..n" style="text;html=1;align=center;verticalAlign=middle;resizable=0;points=[];autosize=1;strokeColor=none;fillColor=none;" vertex="1" parent="WIyWlLk6GJQsqaUBKTNV-1">
          <mxGeometry x="253" y="920" width="40" height="30" as="geometry" />
        </mxCell>
        <mxCell id="3tdxItgbCwFwzR9cwCHK-50" value="" style="endArrow=open;html=1;endSize=12;startArrow=diamondThin;startSize=14;startFill=1;edgeStyle=orthogonalEdgeStyle;align=left;verticalAlign=bottom;rounded=0;entryX=1;entryY=0.645;entryDx=0;entryDy=0;entryPerimeter=0;exitX=0;exitY=0.769;exitDx=0;exitDy=0;exitPerimeter=0;" edge="1" parent="WIyWlLk6GJQsqaUBKTNV-1" source="3tdxItgbCwFwzR9cwCHK-23" target="3tdxItgbCwFwzR9cwCHK-27">
          <mxGeometry x="-1" y="3" relative="1" as="geometry">
            <mxPoint x="326" y="920" as="sourcePoint" />
            <mxPoint x="160" y="920" as="targetPoint" />
            <Array as="points" />
          </mxGeometry>
        </mxCell>
        <mxCell id="3tdxItgbCwFwzR9cwCHK-53" value="1" style="text;html=1;align=center;verticalAlign=middle;resizable=0;points=[];autosize=1;strokeColor=none;fillColor=none;" vertex="1" parent="WIyWlLk6GJQsqaUBKTNV-1">
          <mxGeometry x="366" y="890" width="30" height="30" as="geometry" />
        </mxCell>
        <mxCell id="3tdxItgbCwFwzR9cwCHK-54" value="1" style="text;html=1;align=center;verticalAlign=middle;resizable=0;points=[];autosize=1;strokeColor=none;fillColor=none;" vertex="1" parent="WIyWlLk6GJQsqaUBKTNV-1">
          <mxGeometry x="336" y="310" width="30" height="30" as="geometry" />
        </mxCell>
        <mxCell id="3tdxItgbCwFwzR9cwCHK-55" value="1" style="text;html=1;align=center;verticalAlign=middle;resizable=0;points=[];autosize=1;strokeColor=none;fillColor=none;" vertex="1" parent="WIyWlLk6GJQsqaUBKTNV-1">
          <mxGeometry x="365" y="490" width="30" height="30" as="geometry" />
        </mxCell>
        <mxCell id="3tdxItgbCwFwzR9cwCHK-56" value="1" style="endArrow=open;html=1;endSize=12;startArrow=diamondThin;startSize=14;startFill=0;edgeStyle=orthogonalEdgeStyle;align=left;verticalAlign=bottom;rounded=0;entryX=-0.002;entryY=0.357;entryDx=0;entryDy=0;entryPerimeter=0;" edge="1" parent="WIyWlLk6GJQsqaUBKTNV-1" source="3tdxItgbCwFwzR9cwCHK-22" target="3tdxItgbCwFwzR9cwCHK-25">
          <mxGeometry x="-1" y="3" relative="1" as="geometry">
            <mxPoint x="590" y="115" as="sourcePoint" />
            <mxPoint x="750" y="115" as="targetPoint" />
          </mxGeometry>
        </mxCell>
        <mxCell id="3tdxItgbCwFwzR9cwCHK-57" value="1" style="endArrow=open;html=1;endSize=12;startArrow=diamondThin;startSize=14;startFill=1;edgeStyle=orthogonalEdgeStyle;align=left;verticalAlign=bottom;rounded=0;entryX=0.5;entryY=1;entryDx=0;entryDy=0;exitX=1.013;exitY=0.208;exitDx=0;exitDy=0;exitPerimeter=0;" edge="1" parent="WIyWlLk6GJQsqaUBKTNV-1" source="3tdxItgbCwFwzR9cwCHK-23" target="3tdxItgbCwFwzR9cwCHK-25">
          <mxGeometry x="-1" y="3" relative="1" as="geometry">
            <mxPoint x="630" y="521" as="sourcePoint" />
            <mxPoint x="750" y="520" as="targetPoint" />
          </mxGeometry>
        </mxCell>
        <mxCell id="3tdxItgbCwFwzR9cwCHK-58" value="0..n" style="text;html=1;align=center;verticalAlign=middle;resizable=0;points=[];autosize=1;strokeColor=none;fillColor=none;" vertex="1" parent="WIyWlLk6GJQsqaUBKTNV-1">
          <mxGeometry x="673" y="112" width="40" height="30" as="geometry" />
        </mxCell>
        <mxCell id="3tdxItgbCwFwzR9cwCHK-60" value="1..n" style="text;html=1;align=center;verticalAlign=middle;resizable=0;points=[];autosize=1;strokeColor=none;fillColor=none;" vertex="1" parent="WIyWlLk6GJQsqaUBKTNV-1">
          <mxGeometry x="800" y="400" width="40" height="30" as="geometry" />
        </mxCell>
        <mxCell id="3tdxItgbCwFwzR9cwCHK-65" value="1..n" style="endArrow=open;html=1;endSize=12;startArrow=diamondThin;startSize=14;startFill=0;edgeStyle=orthogonalEdgeStyle;align=left;verticalAlign=bottom;rounded=0;exitX=1;exitY=0.5;exitDx=0;exitDy=0;entryX=-0.009;entryY=0.16;entryDx=0;entryDy=0;entryPerimeter=0;" edge="1" parent="WIyWlLk6GJQsqaUBKTNV-1" source="3tdxItgbCwFwzR9cwCHK-26" target="3tdxItgbCwFwzR9cwCHK-23">
          <mxGeometry x="-1" y="3" relative="1" as="geometry">
            <mxPoint x="510" y="820" as="sourcePoint" />
            <mxPoint x="670" y="820" as="targetPoint" />
            <Array as="points">
              <mxPoint x="238" y="484" />
            </Array>
          </mxGeometry>
        </mxCell>
      </root>
    </mxGraphModel>
  </diagram>
</mxfile>
